<?xml version="1.0" standalone="no"?>
<!DOCTYPE svg PUBLIC "-//W3C//DTD SVG 20010904//EN"
 "http://www.w3.org/TR/2001/REC-SVG-20010904/DTD/svg10.dtd">
<svg version="1.0" xmlns="http://www.w3.org/2000/svg"
 width="700.000000pt" height="700.000000pt" viewBox="0 0 700.000000 700.000000"
 preserveAspectRatio="xMidYMid meet">
<metadata>
Created by potrace 1.11, written by Peter Selinger 2001-2013
</metadata>
<g transform="translate(0.000000,700.000000) scale(0.100000,-0.100000)"
fill="#000000" stroke="none">
<path d="M3500 5250 l0 -1750 -1750 0 -1750 0 0 -1409 c0 -952 3 -1435 11
-1487 22 -156 82 -276 199 -394 115 -116 236 -177 400 -200 38 -6 644 -10
1478 -10 l1412 0 0 1750 0 1750 1750 0 1751 0 -3 1458 c-4 1636 3 1494 -80
1662 -60 120 -178 238 -298 298 -168 83 -26 76 -1662 80 l-1458 3 0 -1751z
m-1488 -2201 c267 -54 476 -167 673 -364 260 -260 388 -568 388 -935 0 -345
-121 -655 -354 -904 -557 -596 -1512 -554 -2014 89 -405 519 -369 1250 84
1727 218 230 503 372 819 408 107 12 288 3 404 -21z"/>
<path d="M1550 2909 c-152 -20 -315 -70 -445 -136 -99 -51 -262 -202 -331
-306 -15 -23 -35 -53 -44 -67 -53 -81 -116 -286 -138 -450 -9 -71 -9 -329 0
-400 22 -165 84 -364 142 -455 51 -81 72 -108 123 -164 159 -176 321 -263 598
-323 141 -30 446 -31 583 -2 303 64 504 182 665 392 100 129 176 334 205 552
4 30 7 120 7 200 0 154 -5 211 -30 328 -47 221 -133 388 -275 532 -133 135
-354 246 -560 281 -30 6 -66 12 -80 15 -45 10 -353 12 -420 3z m482 -72 c628
-165 988 -833 780 -1447 -121 -355 -423 -633 -792 -730 -119 -31 -342 -39
-461 -16 -239 45 -429 145 -599 316 -149 148 -242 307 -296 505 -25 92 -28
115 -28 285 0 169 2 193 26 282 83 306 297 572 573 714 185 96 318 125 540
120 131 -3 178 -8 257 -29z"/>
</g>
</svg>
